<svg width="180" height="26" viewBox="0 0 180 26" fill="none" xmlns="http://www.w3.org/2000/svg">
<path d="M172.399 25.3645C171.246 25.3645 170.215 25.1094 169.305 24.5994C168.407 24.0893 167.703 23.3242 167.193 22.3041H167.176V24.9986H162.336V0.216187H167.243V9.86302H167.26C167.825 8.92051 168.54 8.22195 169.405 7.76732C170.281 7.30162 171.29 7.06876 172.432 7.06876C173.929 7.06876 175.243 7.45685 176.374 8.23303C177.516 8.99813 178.403 10.0681 179.035 11.4431C179.679 12.818 180 14.4037 180 16.2C180 18.0296 179.684 19.6318 179.052 21.0068C178.42 22.3817 177.533 23.4517 176.391 24.2168C175.26 24.9819 173.929 25.3645 172.399 25.3645ZM171.135 21.3727C172.321 21.3727 173.269 20.9236 173.979 20.0255C174.7 19.1162 175.06 17.8411 175.06 16.2C175.06 14.5589 174.7 13.2893 173.979 12.3911C173.269 11.4819 172.321 11.0273 171.135 11.0273C169.893 11.0273 168.895 11.4985 168.141 12.441C167.387 13.3836 167.01 14.6365 167.01 16.2C167.01 17.7745 167.387 19.033 168.141 19.9756C168.895 20.907 169.893 21.3727 171.135 21.3727Z" fill="black"/>
<path d="M149.221 25.2979C147.469 25.2979 146.022 24.8599 144.88 23.9839C143.749 23.108 143.183 21.794 143.183 20.042C143.183 18.7225 143.499 17.6913 144.131 16.9484C144.763 16.1944 145.601 15.6455 146.643 15.3018C147.685 14.9581 148.816 14.7307 150.036 14.6199C151.644 14.4535 152.769 14.2872 153.412 14.1209C154.055 13.9546 154.377 13.5887 154.377 13.0231V12.9067C154.377 12.2636 154.122 11.7369 153.612 11.3266C153.102 10.9164 152.398 10.7112 151.5 10.7112C150.59 10.7112 149.853 10.9219 149.287 11.3433C148.722 11.7646 148.411 12.3135 148.356 12.9899H143.749C143.86 11.1825 144.603 9.74655 145.978 8.68207C147.353 7.60651 149.243 7.06873 151.649 7.06873C154.055 7.06873 155.918 7.60651 157.238 8.68207C158.557 9.74655 159.217 11.2158 159.217 13.0897V24.9985H154.427V22.5203H154.36C153.895 23.3741 153.257 24.0505 152.448 24.5494C151.638 25.0484 150.563 25.2979 149.221 25.2979ZM150.585 21.8882C151.76 21.8882 152.692 21.5778 153.379 20.9568C154.067 20.3248 154.41 19.532 154.41 18.5784V16.8153C154.133 16.9706 153.673 17.1147 153.03 17.2478C152.387 17.3698 151.671 17.4917 150.884 17.6137C150.041 17.7468 149.326 17.9907 148.739 18.3455C148.162 18.6893 147.874 19.2104 147.874 19.909C147.874 20.5299 148.118 21.0178 148.606 21.3726C149.105 21.7164 149.764 21.8882 150.585 21.8882Z" fill="black"/>
<path d="M140.713 0.216187V24.9986H135.807V0.216187H140.713Z" fill="black"/>
<path d="M114.118 15.2353V24.9985H109.211V7.43464H114.034V10.1956C114.633 9.19768 115.382 8.42704 116.28 7.88372C117.178 7.34039 118.259 7.06873 119.523 7.06873C121.386 7.06873 122.877 7.67304 123.997 8.88166C125.117 10.0792 125.677 11.7868 125.677 14.0045V24.9985H120.787V14.9026C120.787 13.7273 120.504 12.8346 119.939 12.2248C119.373 11.6038 118.581 11.2934 117.56 11.2934C116.551 11.2934 115.725 11.6094 115.082 12.2414C114.439 12.8735 114.118 13.8714 114.118 15.2353Z" fill="black"/>
<path d="M97.9087 25.3978C96.1345 25.3978 94.5766 25.0152 93.2349 24.2501C91.9043 23.485 90.862 22.4205 90.108 21.0567C89.3651 19.6817 88.9937 18.0739 88.9937 16.2333C88.9937 14.3926 89.3651 12.7848 90.108 11.4099C90.862 10.0349 91.9043 8.96489 93.2349 8.19979C94.5766 7.42361 96.1345 7.03552 97.9087 7.03552C99.6939 7.03552 101.252 7.42361 102.582 8.19979C103.924 8.96489 104.966 10.0349 105.709 11.4099C106.463 12.7848 106.84 14.3926 106.84 16.2333C106.84 18.0628 106.463 19.6651 105.709 21.0401C104.966 22.415 103.924 23.485 102.582 24.2501C101.252 25.0152 99.6939 25.3978 97.9087 25.3978ZM97.9087 21.4226C99.1062 21.4226 100.071 20.968 100.803 20.0587C101.535 19.1384 101.9 17.8633 101.9 16.2333C101.9 14.5922 101.535 13.3115 100.803 12.3912C100.071 11.4708 99.1062 11.0107 97.9087 11.0107C96.7222 11.0107 95.7631 11.4708 95.0312 12.3912C94.2994 13.3115 93.9335 14.5922 93.9335 16.2333C93.9335 17.8633 94.2994 19.1384 95.0312 20.0587C95.7631 20.968 96.7222 21.4226 97.9087 21.4226Z" fill="black"/>
<path d="M81.7165 24.9986V7.43471H86.6231V24.9986H81.7165ZM84.1615 5.22259C83.352 5.22259 82.6812 4.97865 82.1489 4.49077C81.6167 3.99179 81.3506 3.3653 81.3506 2.6113C81.3506 1.85729 81.6167 1.23635 82.1489 0.748461C82.6812 0.249487 83.352 0 84.1615 0C84.9598 0 85.6251 0.249487 86.1574 0.748461C86.6896 1.23635 86.9557 1.85729 86.9557 2.6113C86.9557 3.3653 86.6896 3.99179 86.1574 4.49077C85.6251 4.97865 84.9598 5.22259 84.1615 5.22259Z" fill="black"/>
<path d="M79.579 7.43468V11.2768H75.9864V19.5764C75.9864 20.1751 76.1028 20.591 76.3357 20.8238C76.5796 21.0456 77.0343 21.1565 77.6996 21.1565H79.579V24.9986H76.7182C74.7889 24.9986 73.364 24.6216 72.4437 23.8676C71.5345 23.1136 71.0798 21.9382 71.0798 20.3415V11.2768H68.0527V7.43468H71.0798V2.64453H75.9864V7.43468H79.579Z" fill="black"/>
<path d="M58.1809 25.3978C56.4067 25.3978 54.8488 25.0152 53.5071 24.2501C52.1766 23.485 51.1342 22.4205 50.3802 21.0567C49.6373 19.6817 49.2659 18.0739 49.2659 16.2333C49.2659 14.3926 49.6373 12.7848 50.3802 11.4099C51.1342 10.0349 52.1766 8.96489 53.5071 8.19979C54.8488 7.42361 56.4067 7.03552 58.1809 7.03552C59.9661 7.03552 61.524 7.42361 62.8546 8.19979C64.1963 8.96489 65.2386 10.0349 65.9815 11.4099C66.7355 12.7848 67.1125 14.3926 67.1125 16.2333C67.1125 18.0628 66.7355 19.6651 65.9815 21.0401C65.2386 22.415 64.1963 23.485 62.8546 24.2501C61.524 25.0152 59.9661 25.3978 58.1809 25.3978ZM58.1809 21.4226C59.3784 21.4226 60.3431 20.968 61.0749 20.0587C61.8067 19.1384 62.1727 17.8633 62.1727 16.2333C62.1727 14.5922 61.8067 13.3115 61.0749 12.3912C60.3431 11.4708 59.3784 11.0107 58.1809 11.0107C56.9944 11.0107 56.0353 11.4708 55.3035 12.3912C54.5716 13.3115 54.2057 14.5922 54.2057 16.2333C54.2057 17.8633 54.5716 19.1384 55.3035 20.0587C56.0353 20.968 56.9944 21.4226 58.1809 21.4226Z" fill="black"/>
<path d="M20.2668 24.9985V7.43464H24.9905V10.5948C25.5116 9.40836 26.249 8.52684 27.2026 7.95025C28.1562 7.36257 29.1929 7.06873 30.3129 7.06873C31.4993 7.06873 32.5471 7.37365 33.4564 7.98351C34.3767 8.58228 35.0198 9.41945 35.3858 10.495C35.8515 9.41945 36.5833 8.58228 37.5812 7.98351C38.5903 7.37365 39.7324 7.06873 41.0075 7.06873C42.6929 7.06873 44.0956 7.6176 45.2155 8.71534C46.3355 9.80199 46.8954 11.3488 46.8954 13.3558V24.9985H42.0055V14.2539C42.0055 13.2006 41.7172 12.4133 41.1406 11.8921C40.5751 11.371 39.871 11.1104 39.0283 11.1104C38.0858 11.1104 37.3373 11.4153 36.7829 12.0252C36.2285 12.6351 35.9513 13.4334 35.9513 14.4203V24.9985H31.2276V14.1209C31.2276 13.2116 30.956 12.4854 30.4126 11.942C29.8693 11.3876 29.1708 11.1104 28.317 11.1104C27.441 11.1104 26.6981 11.4153 26.0882 12.0252C25.4784 12.6351 25.1734 13.5055 25.1734 14.6365V24.9985H20.2668Z" fill="black"/>
<path d="M0 24.9986V0.216187H17.7801V4.60716H5.1228V10.3454H16.8321V14.6199H5.1228V20.6076H17.7801V24.9986H0Z" fill="black"/>
</svg>
