<svg width="1540" height="220" viewBox="0 0 1540 220" fill="none" xmlns="http://www.w3.org/2000/svg">
<path d="M487.404 68.2451C502.216 68.2451 515.142 71.4442 526.204 77.8213C537.266 84.1565 545.918 93.0218 552.119 104.375C558.32 115.77 561.421 129.068 561.421 144.269C561.421 159.385 558.32 172.621 552.119 184.017C545.918 195.37 537.266 204.193 526.204 210.528C515.163 216.843 502.216 220 487.404 220C472.739 220 459.855 216.864 448.751 210.528C437.71 204.193 429.1 195.369 422.878 184.058C416.677 172.746 413.576 159.469 413.576 144.269C413.576 129.068 416.677 115.791 422.878 104.375C429.079 93.0219 437.689 84.1565 448.751 77.8213C459.855 71.4442 472.739 68.2451 487.404 68.2451ZM824.533 68.2451C839.345 68.2451 852.271 71.4442 863.333 77.8213C874.374 84.1565 883.026 93.0219 889.248 104.375C895.449 115.77 898.55 129.068 898.55 144.269C898.55 159.385 895.449 172.621 889.248 184.017C883.047 195.37 874.395 204.193 863.333 210.528C852.271 216.843 839.345 220 824.533 220C809.868 220 796.984 216.863 785.881 210.528C774.84 204.193 766.229 195.369 760.007 184.058C753.806 172.746 750.705 159.469 750.705 144.269C750.705 129.068 753.806 115.791 760.007 104.375C766.208 93.0218 774.819 84.1565 785.881 77.8213C796.984 71.4444 809.868 68.2451 824.533 68.2451ZM1412.37 91.5791H1412.52C1417.21 83.7804 1423.14 77.9674 1430.35 74.1621C1437.6 70.3568 1445.91 68.4756 1455.36 68.4756C1467.79 68.4756 1478.68 71.6746 1488.09 78.0098C1497.49 84.3868 1504.83 93.2519 1510.15 104.626C1515.4 115.979 1518.04 129.131 1518.04 143.955C1518.04 159.072 1515.4 172.349 1510.19 183.702C1504.97 195.055 1497.64 203.921 1488.23 210.215C1478.83 216.571 1467.76 219.707 1455.07 219.707C1445.52 219.707 1437.01 217.596 1429.53 213.414C1422.05 209.191 1416.19 202.855 1411.95 194.408H1411.81V216.696H1371.75V11.8555H1412.37V91.5791ZM1280.41 68.4756C1300.35 68.4756 1315.77 72.8875 1326.69 81.7109C1337.64 90.5761 1343.09 102.745 1343.09 118.217V216.676H1303.41V196.164H1302.85C1298.99 203.252 1293.73 208.835 1287.01 212.975C1280.32 217.135 1271.4 219.205 1260.3 219.205C1245.76 219.205 1233.81 215.588 1224.41 208.312C1215 201.077 1210.31 190.247 1210.31 175.736C1210.31 164.843 1212.89 156.271 1218.17 150.103C1223.38 143.914 1230.3 139.398 1238.95 136.533C1247.6 133.669 1256.96 131.786 1267.06 130.908C1280.37 129.549 1289.69 128.149 1294.99 126.769C1300.35 125.409 1302.99 122.356 1302.99 117.715V116.732C1302.99 111.422 1300.88 107.073 1296.64 103.686C1292.45 100.298 1286.63 98.5625 1279.15 98.5625C1271.63 98.5626 1265.51 100.298 1260.86 103.811C1256.17 107.281 1253.57 111.84 1253.15 117.423H1214.96C1215.9 102.452 1222.06 90.5761 1233.44 81.7109C1244.81 72.8876 1260.48 68.4757 1280.41 68.4756ZM637.533 71.5068H667.324V103.288H637.554V171.91C637.554 176.845 638.539 180.274 640.508 182.135C642.477 184.016 646.249 184.957 651.737 184.957H667.303V216.738H643.608C627.623 216.738 615.87 213.643 608.286 207.392C600.723 201.14 596.91 191.438 596.91 178.245V103.268H571.854V71.5068H596.91V31.8857H637.533V71.5068ZM147.279 48.1318H42.4658V95.5732H139.423V130.908H42.4658V180.44H147.279V216.717H0V11.8555H147.279V48.1318ZM342.325 68.4961C356.299 68.4962 367.905 72.9915 377.165 82.0029C386.425 91.0563 391.075 103.874 391.075 120.434V216.696H350.579V127.877C350.579 119.2 348.232 112.676 343.477 108.348C338.721 104.083 332.897 101.908 325.899 101.908C318.085 101.908 311.926 104.396 307.317 109.456C302.708 114.474 300.403 121.102 300.403 129.257V216.696H261.29V126.789C261.29 119.283 259.069 113.22 254.564 108.725C250.06 104.167 244.257 101.929 237.218 101.929C229.927 101.929 223.768 104.418 218.74 109.478C213.712 114.496 211.177 121.73 211.177 131.076V216.717H170.555V71.5068H209.669V97.6426C214.006 87.8366 220.06 80.5185 227.958 75.7305C235.856 70.9006 244.467 68.4961 253.727 68.4961C263.552 68.4961 272.247 70.9847 279.831 75.9609C287.457 80.979 292.715 87.9207 295.773 96.8066C299.628 87.9414 305.704 80.9999 314.021 75.9609C322.339 70.9847 331.745 68.4961 342.325 68.4961ZM728.352 216.717H687.729V71.5068H728.352V216.717ZM1006.25 68.4961C1021.67 68.4962 1034.06 73.4725 1043.32 83.4248C1052.58 93.3773 1057.23 107.491 1057.23 125.807V216.717H1016.71V133.271C1016.71 123.549 1014.36 116.147 1009.65 111.066C1005 105.944 998.419 103.414 989.955 103.414C981.638 103.414 974.767 106.048 969.445 111.254C964.145 116.46 961.463 124.72 961.463 135.989V216.717H920.841V71.5068H960.771V94.3604C965.758 86.1015 971.959 79.7243 979.396 75.208C986.834 70.7545 995.759 68.4961 1006.25 68.4961ZM1187.14 216.717H1146.52V11.8555H1187.14V216.717ZM1303.29 149.078C1300.98 150.354 1297.17 151.524 1291.87 152.549C1286.55 153.636 1280.64 154.661 1274.1 155.644C1267.15 156.773 1261.22 158.737 1256.42 161.644C1251.58 164.508 1249.17 168.816 1249.17 174.607C1249.17 179.772 1251.2 183.766 1255.29 186.672C1259.35 189.536 1264.82 191 1271.59 191C1281.33 191 1289.04 188.428 1294.72 183.264C1300.46 178.057 1303.29 171.534 1303.29 163.651V149.078ZM487.404 101.072C477.579 101.072 469.639 104.877 463.563 112.467C457.551 120.078 454.491 130.678 454.491 144.248C454.491 157.713 457.551 168.23 463.563 175.778C469.639 183.389 477.579 187.132 487.404 187.132C497.335 187.132 505.317 183.368 511.393 175.778C517.468 168.23 520.464 157.713 520.464 144.248C520.464 130.678 517.447 120.078 511.393 112.467C505.317 104.856 497.335 101.072 487.404 101.072ZM824.533 101.072C814.708 101.072 806.768 104.877 800.692 112.467C794.68 120.078 791.621 130.678 791.621 144.248C791.621 157.713 794.68 168.23 800.692 175.778C806.747 183.389 814.708 187.132 824.533 187.132C834.464 187.132 842.446 183.368 848.521 175.778C854.597 168.23 857.593 157.713 857.593 144.248C857.593 130.678 854.576 120.078 848.521 112.467C842.446 104.856 834.464 101.072 824.533 101.072ZM1444.59 101.218C1434.35 101.218 1426.07 105.107 1419.81 112.906C1413.55 120.705 1410.45 131.076 1410.45 143.977C1410.45 157.023 1413.55 167.394 1419.81 175.13C1426.05 182.866 1434.33 186.714 1444.59 186.714C1454.42 186.714 1462.32 183.012 1468.25 175.548C1474.17 168.042 1477.13 157.525 1477.13 143.955C1477.13 130.386 1474.17 119.889 1468.25 112.425C1462.32 104.961 1454.42 101.218 1444.59 101.218ZM708.051 10.0781C714.671 10.0781 720.181 12.1055 724.602 16.1826C728.98 20.2598 731.18 25.4251 731.18 31.6768C731.18 37.8654 728.98 43.0294 724.602 47.1064C720.181 51.1836 714.671 53.2539 708.051 53.2539C701.326 53.2539 695.774 51.1836 691.396 47.1064C686.975 43.0294 684.776 37.8654 684.775 31.6768C684.775 25.4251 686.975 20.2807 691.396 16.1826C695.774 12.1056 701.326 10.0781 708.051 10.0781ZM1528.12 0C1534.68 0.000256566 1540 5.31124 1540 11.8555C1540 18.3996 1534.68 23.7097 1528.12 23.71C1521.56 23.71 1516.24 18.3997 1516.24 11.8555C1516.24 5.31109 1521.54 0 1528.12 0ZM1528.12 2.67676C1523.03 2.67676 1518.9 6.77469 1518.92 11.8555C1518.92 16.9152 1523.03 21.0342 1528.12 21.0342C1533.19 21.0339 1537.32 16.936 1537.32 11.8555C1537.32 6.79575 1533.21 2.67701 1528.12 2.67676ZM1528.1 5.37305C1529.29 5.37305 1530.34 5.64485 1531.22 6.18848C1532.12 6.73204 1532.81 7.48526 1533.3 8.46777C1533.8 9.42957 1534.03 10.559 1534.03 11.8135V12.6289H1525.04C1525.08 13.6324 1525.38 14.448 1525.94 15.0752C1526.51 15.6815 1527.28 15.9951 1528.27 15.9951C1529.02 15.9951 1529.63 15.8282 1530.11 15.5146C1530.59 15.201 1530.93 14.761 1531.1 14.2383H1533.86C1533.72 15.0328 1533.36 15.7647 1532.83 16.3711C1532.31 16.9774 1531.64 17.4799 1530.84 17.8145C1530.07 18.1488 1529.19 18.3154 1528.23 18.3154C1526.99 18.3154 1525.92 18.044 1525 17.4795C1524.1 16.9359 1523.39 16.162 1522.91 15.2002C1522.42 14.2176 1522.17 13.1098 1522.17 11.8555C1522.17 10.601 1522.42 9.47154 1522.93 8.50977C1523.43 7.52706 1524.12 6.77449 1525.02 6.20996C1525.92 5.64558 1526.95 5.37307 1528.1 5.37305ZM1528.16 7.71484C1527.3 7.71493 1526.61 7.96663 1526.07 8.48926C1525.52 9.01194 1525.19 9.70207 1525.1 10.5801H1531.22C1531.12 9.70209 1530.8 8.99105 1530.26 8.48926C1529.71 7.96654 1529.02 7.71484 1528.16 7.71484Z" fill="black"/>
</svg>
