<svg width="170" height="24" viewBox="0 0 170 24" fill="none" xmlns="http://www.w3.org/2000/svg">
<path d="M162.82 23.9554C161.731 23.9554 160.757 23.7146 159.898 23.2328C159.05 22.7511 158.385 22.0285 157.903 21.0651H157.888V23.6098H153.316V0.204224H157.95V9.31513H157.966C158.5 8.42499 159.176 7.76523 159.993 7.33587C160.82 6.89603 161.773 6.67611 162.852 6.67611C164.265 6.67611 165.506 7.04264 166.575 7.7757C167.653 8.49829 168.491 9.50887 169.088 10.8074C169.695 12.106 169.999 13.6035 169.999 15.3001C169.999 17.028 169.701 18.5412 169.104 19.8398C168.507 21.1384 167.669 22.1489 166.59 22.8715C165.522 23.5941 164.265 23.9554 162.82 23.9554ZM161.626 20.1854C162.747 20.1854 163.642 19.7613 164.313 18.913C164.993 18.0543 165.334 16.85 165.334 15.3001C165.334 13.7502 164.993 12.5511 164.313 11.7028C163.642 10.8441 162.747 10.4147 161.626 10.4147C160.453 10.4147 159.511 10.8598 158.799 11.7499C158.087 12.6401 157.731 13.8235 157.731 15.3001C157.731 16.7871 158.087 17.9757 158.799 18.8659C159.511 19.7456 160.453 20.1854 161.626 20.1854Z" fill="#E6E6E6"/>
<path d="M140.935 23.8926C139.28 23.8926 137.913 23.479 136.835 22.6517C135.767 21.8243 135.232 20.5834 135.232 18.9287C135.232 17.6825 135.531 16.7086 136.128 16.007C136.725 15.2949 137.515 14.7765 138.5 14.4518C139.484 14.1272 140.552 13.9125 141.704 13.8078C143.223 13.6507 144.286 13.4936 144.893 13.3365C145.501 13.1795 145.804 12.8339 145.804 12.2998V12.1898C145.804 11.5824 145.564 11.085 145.082 10.6975C144.6 10.31 143.935 10.1163 143.087 10.1163C142.228 10.1163 141.532 10.3153 140.998 10.7132C140.463 11.1112 140.17 11.6295 140.118 12.2684H135.767C135.871 10.5614 136.573 9.20521 137.871 8.19987C139.17 7.18405 140.956 6.67615 143.228 6.67615C145.501 6.67615 147.26 7.18405 148.506 8.19987C149.753 9.20521 150.376 10.5928 150.376 12.3626V23.6099H145.852V21.2693H145.789C145.349 22.0757 144.747 22.7145 143.982 23.1857C143.218 23.657 142.202 23.8926 140.935 23.8926ZM142.223 20.6724C143.333 20.6724 144.213 20.3792 144.862 19.7927C145.511 19.1958 145.836 18.447 145.836 17.5464V15.8813C145.574 16.0279 145.139 16.1641 144.532 16.2897C143.925 16.4049 143.249 16.5201 142.506 16.6353C141.71 16.761 141.034 16.9914 140.479 17.3265C139.935 17.6511 139.662 18.1433 139.662 18.8031C139.662 19.3895 139.893 19.8503 140.353 20.1854C140.825 20.5101 141.448 20.6724 142.223 20.6724Z" fill="#E6E6E6"/>
<path d="M132.9 0.204224V23.6098H128.266V0.204224H132.9Z" fill="#E6E6E6"/>
<path d="M107.783 14.389V23.6099H103.148V7.02173H107.704V9.62934C108.269 8.68683 108.976 7.95901 109.825 7.44586C110.673 6.93272 111.694 6.67615 112.888 6.67615C114.647 6.67615 116.056 7.24689 117.113 8.38837C118.171 9.51938 118.7 11.1321 118.7 13.2266V23.6099H114.082V14.0748C114.082 12.9648 113.815 12.1217 113.281 11.5458C112.746 10.9593 111.998 10.6661 111.034 10.6661C110.081 10.6661 109.301 10.9646 108.694 11.5615C108.086 12.1584 107.783 13.1009 107.783 14.389Z" fill="#E6E6E6"/>
<path d="M92.4707 23.9868C90.7951 23.9868 89.3237 23.6255 88.0565 22.9029C86.7998 22.1803 85.8154 21.175 85.1033 19.8869C84.4016 18.5883 84.0508 17.0698 84.0508 15.3314C84.0508 13.593 84.4016 12.0745 85.1033 10.776C85.8154 9.47741 86.7998 8.46684 88.0565 7.74425C89.3237 7.01118 90.7951 6.64465 92.4707 6.64465C94.1567 6.64465 95.6281 7.01118 96.8848 7.74425C98.152 8.46684 99.1364 9.47741 99.8381 10.776C100.55 12.0745 100.906 13.593 100.906 15.3314C100.906 17.0594 100.55 18.5726 99.8381 19.8712C99.1364 21.1697 98.152 22.1803 96.8848 22.9029C95.6281 23.6255 94.1567 23.9868 92.4707 23.9868ZM92.4707 20.2325C93.6017 20.2325 94.5128 19.8031 95.204 18.9444C95.8952 18.0752 96.2408 16.8709 96.2408 15.3314C96.2408 13.7815 95.8952 12.572 95.204 11.7028C94.5128 10.8336 93.6017 10.399 92.4707 10.399C91.3501 10.399 90.4442 10.8336 89.7531 11.7028C89.0619 12.572 88.7163 13.7815 88.7163 15.3314C88.7163 16.8709 89.0619 18.0752 89.7531 18.9444C90.4442 19.8031 91.3501 20.2325 92.4707 20.2325Z" fill="#E6E6E6"/>
<path d="M77.1776 23.6098V7.02168H81.8117V23.6098H77.1776ZM79.4868 4.93246C78.7223 4.93246 78.0887 4.70207 77.586 4.24129C77.0834 3.77003 76.832 3.17835 76.832 2.46623C76.832 1.75411 77.0834 1.16766 77.586 0.706881C78.0887 0.235627 78.7223 0 79.4868 0C80.2408 0 80.8692 0.235627 81.3719 0.706881C81.8745 1.16766 82.1259 1.75411 82.1259 2.46623C82.1259 3.17835 81.8745 3.77003 81.3719 4.24129C80.8692 4.70207 80.2408 4.93246 79.4868 4.93246Z" fill="#E6E6E6"/>
<path d="M75.1596 7.0216V10.6503H71.7665V18.4888C71.7665 19.0543 71.8765 19.447 72.0964 19.6669C72.3268 19.8764 72.7562 19.9811 73.3845 19.9811H75.1596V23.6097H72.4577C70.6355 23.6097 69.2898 23.2537 68.4205 22.5416C67.5618 21.8294 67.1324 20.7194 67.1324 19.2114V10.6503H64.2734V7.0216H67.1324V2.49756H71.7665V7.0216H75.1596Z" fill="#E6E6E6"/>
<path d="M54.9472 23.9868C53.2716 23.9868 51.8002 23.6255 50.5331 22.9029C49.2764 22.1803 48.292 21.175 47.5798 19.8869C46.8782 18.5883 46.5273 17.0698 46.5273 15.3314C46.5273 13.593 46.8782 12.0745 47.5798 10.776C48.292 9.47741 49.2764 8.46684 50.5331 7.74425C51.8002 7.01118 53.2716 6.64465 54.9472 6.64465C56.6333 6.64465 58.1047 7.01118 59.3614 7.74425C60.6285 8.46684 61.613 9.47741 62.3146 10.776C63.0267 12.0745 63.3828 13.593 63.3828 15.3314C63.3828 17.0594 63.0267 18.5726 62.3146 19.8712C61.613 21.1697 60.6285 22.1803 59.3614 22.9029C58.1047 23.6255 56.6333 23.9868 54.9472 23.9868ZM54.9472 20.2325C56.0783 20.2325 56.9894 19.8031 57.6805 18.9444C58.3717 18.0752 58.7173 16.8709 58.7173 15.3314C58.7173 13.7815 58.3717 12.572 57.6805 11.7028C56.9894 10.8336 56.0783 10.399 54.9472 10.399C53.8267 10.399 52.9208 10.8336 52.2296 11.7028C51.5384 12.572 51.1928 13.7815 51.1928 15.3314C51.1928 16.8709 51.5384 18.0752 52.2296 18.9444C52.9208 19.8031 53.8267 20.2325 54.9472 20.2325Z" fill="#E6E6E6"/>
<path d="M19.1445 23.6099V7.02173H23.6058V10.0063C24.098 8.8858 24.7944 8.05326 25.6951 7.5087C26.5957 6.95366 27.5749 6.67615 28.6326 6.67615C29.7532 6.67615 30.7428 6.96414 31.6016 7.54011C32.4708 8.10562 33.0782 8.89628 33.4238 9.91209C33.8636 8.89628 34.5548 8.10562 35.4973 7.54011C36.4503 6.96414 37.529 6.67615 38.7333 6.67615C40.3251 6.67615 41.6499 7.19453 42.7076 8.23129C43.7653 9.25757 44.2942 10.7185 44.2942 12.6139V23.6099H39.6758V13.4622C39.6758 12.4673 39.4036 11.7238 38.859 11.2316C38.3249 10.7394 37.6599 10.4933 36.864 10.4933C35.9738 10.4933 35.2669 10.7813 34.7433 11.3573C34.2197 11.9332 33.9579 12.6873 33.9579 13.6193V23.6099H29.4966V13.3365C29.4966 12.4778 29.24 11.7919 28.7269 11.2787C28.2137 10.7551 27.5539 10.4933 26.7476 10.4933C25.9202 10.4933 25.2186 10.7813 24.6426 11.3573C24.0666 11.9332 23.7786 12.7553 23.7786 13.8235V23.6099H19.1445Z" fill="#E6E6E6"/>
<path d="M0 23.6098V0.204224H16.7926V4.35126H4.83829V9.77068H15.8972V13.8078H4.83829V19.4628H16.7926V23.6098H0Z" fill="#E6E6E6"/>
</svg>
